<svg width="20" height="20" viewBox="0 0 20 20" fill="none" xmlns="http://www.w3.org/2000/svg">
<path d="M16.2887 14.9617C16.4649 15.1378 16.5638 15.3767 16.5638 15.6258C16.5638 15.8749 16.4649 16.1137 16.2887 16.2898C16.1126 16.466 15.8737 16.5649 15.6247 16.5649C15.3756 16.5649 15.1367 16.466 14.9606 16.2898L10.0005 11.3281L5.03874 16.2883C4.86262 16.4644 4.62374 16.5633 4.37467 16.5633C4.1256 16.5633 3.88673 16.4644 3.71061 16.2883C3.53449 16.1122 3.43555 15.8733 3.43555 15.6242C3.43555 15.3751 3.53449 15.1363 3.71061 14.9602L8.67233 10L3.71217 5.03828C3.53605 4.86216 3.43711 4.62329 3.43711 4.37422C3.43711 4.12515 3.53605 3.88628 3.71217 3.71016C3.88829 3.53404 4.12716 3.43509 4.37624 3.43509C4.62531 3.43509 4.86418 3.53404 5.0403 3.71016L10.0005 8.67187L14.9622 3.70937C15.1383 3.53325 15.3772 3.43431 15.6262 3.43431C15.8753 3.43431 16.1142 3.53325 16.2903 3.70937C16.4664 3.88549 16.5654 4.12437 16.5654 4.37344C16.5654 4.62251 16.4664 4.86138 16.2903 5.0375L11.3286 10L16.2887 14.9617Z" fill="white"/>
</svg>
