<svg width="16" height="17" viewBox="0 0 16 17" fill="none" xmlns="http://www.w3.org/2000/svg">
<path d="M13.5326 7.03061L8.53255 12.0306C8.46287 12.1005 8.38008 12.156 8.28892 12.1939C8.19775 12.2317 8.10001 12.2512 8.0013 12.2512C7.90259 12.2512 7.80485 12.2317 7.71369 12.1939C7.62252 12.156 7.53973 12.1005 7.47005 12.0306L2.47005 7.03061C2.32915 6.88972 2.25 6.69862 2.25 6.49936C2.25 6.30011 2.32915 6.10901 2.47005 5.96811C2.61095 5.82722 2.80204 5.74806 3.0013 5.74806C3.20056 5.74806 3.39165 5.82722 3.53255 5.96811L8.00193 10.4375L12.4713 5.96749C12.6122 5.82659 12.8033 5.74744 13.0026 5.74744C13.2018 5.74744 13.3929 5.82659 13.5338 5.96749C13.6747 6.10838 13.7539 6.29948 13.7539 6.49874C13.7539 6.69799 13.6747 6.88909 13.5338 7.02999L13.5326 7.03061Z" fill="black"/>
</svg>
