<svg width="24" height="24" viewBox="0 0 24 24" fill="none" xmlns="http://www.w3.org/2000/svg">
<path d="M19.8822 4.88134L19.1463 4.14539C18.9383 3.9374 18.5543 3.96941 18.3143 4.25736L15.7541 6.80132C14.602 6.30538 13.3382 6.06538 12.0101 6.06538C8.05798 6.08132 4.6342 8.38529 2.98608 11.6975C2.89006 11.9055 2.89006 12.1614 2.98608 12.3374C3.75402 13.9054 4.90609 15.2015 6.34609 16.1774L4.2501 18.3054C4.0101 18.5454 3.97809 18.9293 4.13813 19.1374L4.87408 19.8733C5.08207 20.0813 5.46606 20.0493 5.70606 19.7613L19.754 5.71345C20.058 5.47358 20.09 5.08962 19.882 4.88161L19.8822 4.88134ZM12.8581 9.71322C12.5861 9.6492 12.2981 9.56925 12.0261 9.56925C10.6661 9.56925 9.57818 10.6573 9.57818 12.0172C9.57818 12.2892 9.64219 12.5771 9.72215 12.8492L8.65003 13.9052C8.33008 13.3452 8.15409 12.7211 8.15409 12.0172C8.15409 9.88924 9.86611 8.17722 11.9941 8.17722C12.6982 8.17722 13.3221 8.3532 13.8821 8.67316L12.8581 9.71322Z" fill="#666666" fill-opacity="0.8"/>
<path d="M21.0347 11.6974C20.4747 10.5774 19.7386 9.56945 18.8267 8.75342L15.8507 11.6974V12.0174C15.8507 14.1454 14.1387 15.8574 12.0107 15.8574H11.6907L9.80273 17.7454C10.5068 17.8893 11.2427 17.9854 11.9627 17.9854C15.9149 17.9854 19.3386 15.6814 20.9868 12.3532C21.1307 12.1292 21.1307 11.9053 21.0347 11.6973L21.0347 11.6974Z" fill="#666666" fill-opacity="0.8"/>
</svg>
