<svg width="16" height="16" viewBox="0 0 16 16" fill="none" xmlns="http://www.w3.org/2000/svg">
<path d="M6.53025 2.4694L11.5302 7.4694C11.6002 7.53908 11.6556 7.62187 11.6935 7.71304C11.7314 7.8042 11.7508 7.90194 11.7508 8.00065C11.7508 8.09936 11.7314 8.1971 11.6935 8.28827C11.6556 8.37943 11.6002 8.46222 11.5302 8.5319L6.53025 13.5319C6.38935 13.6728 6.19825 13.752 5.999 13.752C5.79974 13.752 5.60864 13.6728 5.46775 13.5319C5.32685 13.391 5.2477 13.1999 5.2477 13.0007C5.2477 12.8014 5.32685 12.6103 5.46775 12.4694L9.93712 8.00003L5.46712 3.53065C5.32623 3.38976 5.24707 3.19866 5.24707 2.9994C5.24707 2.80015 5.32623 2.60905 5.46712 2.46815C5.60802 2.32726 5.79911 2.2481 5.99837 2.2481C6.19763 2.2481 6.38873 2.32726 6.52962 2.46815L6.53025 2.4694Z" fill="black" fill-opacity="0.6"/>
</svg>
