<svg width="18" height="18" viewBox="0 0 18 18" fill="none" xmlns="http://www.w3.org/2000/svg">
<path d="M17.1634 15.8369L13.4533 12.1251C14.5657 10.6755 15.085 8.85701 14.906 7.03853C14.7269 5.22005 13.8629 3.53777 12.4891 2.33294C11.1153 1.12811 9.33464 0.490959 7.50834 0.55073C5.68205 0.6105 3.94687 1.36272 2.65479 2.65479C1.36272 3.94687 0.6105 5.68205 0.55073 7.50834C0.490959 9.33464 1.12811 11.1153 2.33294 12.4891C3.53777 13.8629 5.22005 14.7269 7.03853 14.906C8.85701 15.085 10.6755 14.5657 12.1251 13.4533L15.8384 17.1673C15.9256 17.2545 16.0292 17.3237 16.1431 17.3709C16.257 17.4181 16.3792 17.4424 16.5025 17.4424C16.6258 17.4424 16.7479 17.4181 16.8619 17.3709C16.9758 17.3237 17.0793 17.2545 17.1665 17.1673C17.2537 17.0801 17.3229 16.9766 17.3701 16.8626C17.4173 16.7487 17.4416 16.6266 17.4416 16.5033C17.4416 16.3799 17.4173 16.2578 17.3701 16.1439C17.3229 16.0299 17.2537 15.9264 17.1665 15.8392L17.1634 15.8369ZM2.43764 7.75014C2.43764 6.69942 2.74921 5.67231 3.33295 4.79867C3.9167 3.92503 4.7464 3.24412 5.71713 2.84203C6.68786 2.43994 7.75603 2.33473 8.78656 2.53972C9.81708 2.7447 10.7637 3.25067 11.5066 3.99363C12.2496 4.7366 12.7556 5.6832 12.9606 6.71372C13.1655 7.74424 13.0603 8.81241 12.6582 9.78314C12.2562 10.7539 11.5752 11.5836 10.7016 12.1673C9.82797 12.7511 8.80085 13.0626 7.75014 13.0626C6.34162 13.0612 4.9912 12.501 3.99523 11.505C2.99926 10.5091 2.43908 9.15866 2.43764 7.75014Z" fill="black" fill-opacity="0.4"/>
</svg>
